Coordinates
version=1
nRows=13
nColumns=36
inDegrees=yes

Units are S.I. units (second, meters, Newtons, ...)
If the header above contains a line with 'inDegrees', this indicates whether rotational values are in degrees (yes) or radians (no).

endheader
time	pelvis_tilt	pelvis_list	pelvis_rotation	pelvis_tx	pelvis_ty	pelvis_tz	hip_flexion_r	hip_adduction_r	hip_rotation_r	knee_angle_r	knee_angle_r_beta	ankle_angle_r	subtalar_angle_r	mtp_angle_r	hip_flexion_l	hip_adduction_l	hip_rotation_l	knee_angle_l	knee_angle_l_beta	ankle_angle_l	subtalar_angle_l	mtp_angle_l	lumbar_extension	lumbar_bending	lumbar_rotation	arm_flex_r	arm_add_r	arm_rot_r	elbow_flex_r	pro_sup_r	arm_flex_l	arm_add_l	arm_rot_l	elbow_flex_l	pro_sup_l
      0.32000000	     -3.94914750	     -3.19503464	     -1.14343010	      0.38585673	      0.90498677	     -0.21462107	      8.49462722	     10.20443309	      8.21846644	     16.65572105	      0.29069717	      8.65697129	    -12.32506310	     -6.10969713	     37.30426027	     -5.15372365	     -2.67507299	     71.65665055	      1.25064448	      2.27452031	     -9.40987108	     -6.10969713	     -5.91505061	      6.72457092	      2.41731013	      4.36775493	    -16.55292415	      5.94811382	     45.51846666	    107.02108039	     -6.30742250	    -10.23560930	     -4.65502334	     39.65171286	    104.48649968
      0.33000000	     -3.86268197	     -3.19103098	     -1.76859096	      0.39650982	      0.90546410	     -0.21426744	      7.11253235	     10.19361300	      8.81853220	     15.76295247	      0.27511542	      8.92458530	    -11.96564322	     -6.12585102	     38.10026449	     -5.28217591	     -2.81336272	     69.25126999	      1.20866267	      2.69880082	     -8.79253247	     -6.12585102	     -6.10045076	      6.70895464	      3.33329620	      5.24001850	    -16.77184526	      6.31580358	     46.03100002	    107.00147997	     -6.54900643	    -10.07162100	     -4.84842923	     39.67226177	    104.46196723
      0.34000000	     -3.78737781	     -3.22634333	     -2.33291285	      0.40715101	      0.90573860	     -0.21402326	      5.71558065	     10.18412387	      9.32120282	     14.79154027	      0.25816108	      9.17070835	    -11.55144211	     -6.14296450	     38.79188064	     -5.39923559	     -2.87697591	     66.56549606	      1.16178707	      3.14270794	     -7.88020885	     -6.14296450	     -6.28129798	      6.75942299	      4.19697318	      6.08526048	    -16.96371771	      6.73636325	     46.56306714	    106.97572697	     -6.74566305	     -9.88081363	     -5.06516978	     39.69828686	    104.43261157
      0.35000000	     -3.67072925	     -3.33377688	     -2.87201287	      0.41792707	      0.90582801	     -0.21387228	      4.25761086	     10.20336613	      9.71496673	     13.81255816	      0.24107462	      9.44789476	    -11.07760368	     -6.16284089	     39.28337255	     -5.55351890	     -2.81785600	     63.62279740	      1.11042729	      3.59111130	     -6.73339100	     -6.16284089	     -6.48663469	      6.88159724	      4.99586698	      6.92650025	    -17.18283489	      7.18613200	     47.09782566	    106.92817283	     -6.95514827	     -9.67139177	     -5.34035278	     39.69738265	    104.38987888
      0.36000000	     -3.75980870	     -3.51248522	     -3.31202984	      0.42872864	      0.90535454	     -0.21389706	      3.08972787	     10.27803093	      9.86434058	     12.95138935	      0.22604439	      9.62410914	    -10.65410464	     -6.17404065	     39.91325238	     -5.63978315	     -2.48624943	     60.46645346	      1.05533870	      3.78679316	     -5.84899627	     -6.17404065	     -6.41143946	      7.09864550	      5.70037839	      7.66179610	    -17.36452325	      7.46581936	     47.57559964	    106.91140616	     -7.19333738	     -9.45460946	     -5.52380617	     39.68844480	    104.35833568
      0.37000000	     -3.49917632	     -3.62810457	     -3.72745816	      0.43973855	      0.90526626	     -0.21393925	      1.40930886	     10.22352876	     10.09891657	     11.85087831	      0.20683685	      9.99225805	     -9.93481103	     -6.19448711	     39.93458525	     -5.69073273	     -2.27326943	     57.01950508	      0.99517810	      4.12216467	     -4.48372963	     -6.19448711	     -6.79491253	      7.19206120	      6.35665668	      8.48214267	    -17.60073399	      7.98683036	     48.18927261	    106.85575293	     -7.31623649	     -9.23626632	     -5.91610699	     39.61280979	    104.27781872
      0.38000000	     -3.35793281	     -3.80078934	     -4.03438567	      0.45085181	      0.90470196	     -0.21414576	     -0.05954806	     10.21944631	     10.05317899	     10.91643874	      0.19052780	     10.36518926	     -9.18595639	     -6.21672776	     40.00131319	     -5.68111595	     -1.83483212	     53.43693204	      0.93265041	      4.41255834	     -3.29127056	     -6.21672776	     -6.97903934	      7.38517748	      6.87309670	      9.24244178	    -17.79622368	      8.48839011	     48.73139675	    106.77534767	     -7.50587316	     -9.01761863	     -6.30953486	     39.56618021	    104.18617484
      0.39000000	     -3.33707793	     -3.97729131	     -4.23647451	      0.46198965	      0.90374956	     -0.21451841	     -1.32722082	     10.23396481	      9.93161918	     10.11825444	      0.17659685	     10.65514011	     -8.53894576	     -6.23226975	     40.08497646	     -5.53564684	     -1.10602473	     49.70497180	      0.86751541	      4.55907151	     -2.36961338	     -6.23226975	     -7.00223782	      7.58490409	      7.31737358	      9.90273364	    -17.95965823	      8.88673825	     49.24681040	    106.73052452	     -7.67933482	     -8.81795266	     -6.59528396	     39.52362121	    104.10989696
      0.40000000	     -3.03403446	     -4.13871376	     -4.37634001	      0.47331701	      0.90302669	     -0.21492022	     -2.90945030	     10.18597729	      9.56406087	      9.31076579	      0.16250352	     11.19401696	     -7.51774120	     -6.25902437	     39.69846536	     -5.40307326	     -0.48412258	     45.85210800	      0.80027025	      4.83869948	     -1.46806492	     -6.25902437	     -7.36313462	      7.72954491	      7.61014951	     10.68017208	    -18.11281890	      9.50752957	     49.79807607	    106.62365699	     -7.79918307	     -8.63127988	     -7.04053366	     39.45857373	    103.97131261
      0.41000000	     -3.03893903	     -4.31271774	     -4.43458802	      0.48467226	      0.90166400	     -0.21545521	     -4.01656099	     10.22531969	      9.27703408	      8.78745817	      0.15337008	     11.52057911	     -6.97796387	     -6.27216677	     39.56061486	     -5.16248527	      0.52554614	     41.99766692	      0.73299757	      5.04387915	     -0.85181909	     -6.27216677	     -7.30714321	      7.91197397	      7.90678628	     11.24491217	    -18.24032518	      9.88060789	     50.28020596	    106.59515882	     -7.94800896	     -8.50532278	     -7.27308984	     39.40026512	    103.89635325
      0.42000000	     -2.65797374	     -4.38591889	     -4.40570164	      0.49620481	      0.90073245	     -0.21606521	     -5.56194113	     10.09812910	      8.65414453	      8.21541333	      0.14338601	     12.18538777	     -5.86688376	     -6.30048716	     38.83923198	     -4.84556824	      1.33912314	     38.05250312	      0.66414147	      5.32436333	     -0.57654084	     -6.30048716	     -7.74835994	      7.93798913	      8.00357285	     11.94131928	    -18.34483340	     10.59093657	     50.77714767	    106.50069021	     -8.01413309	     -8.40104434	     -7.70068067	     39.27977246	    103.74396386
      0.43000000	     -2.50634755	     -4.44202075	     -4.36436304	      0.50771301	      0.89933826	     -0.21673343	     -6.70607206	     10.01020109	      8.11773570	      7.93594266	      0.13850833	     12.72740572	     -5.27173898	     -6.31990221	     38.29124960	     -4.49063690	      2.38536864	     34.23869847	      0.59757802	      5.67052364	     -0.48183282	     -6.31990221	     -7.87397284	      7.96495226	      8.15831517	     12.48870121	    -18.41656375	     11.11954684	     51.21539852	    106.46398600	     -8.05762448	     -8.31460611	     -7.98133631	     39.16014658	    103.64586198
      0.44000000	     -2.42432437	     -4.50392528	     -4.34805525	      0.51923111	      0.89778871	     -0.21734255	     -7.65933573	      9.96036581	      7.74953161	      7.90216568	      0.13791881	     13.17441430	     -4.78716774	     -6.33606424	     37.73789178	     -4.22322298	      3.37853320	     30.55447193	      0.53327614	      6.05140070	     -0.64718250	     -6.33606424	     -7.93380038	      8.00085127	      8.31854770	     12.98484479	    -18.46254890	     11.59883046	     51.61815354	    106.45586080	     -8.11535688	     -8.25014235	     -8.20911986	     39.00887382	    103.56773826
